<svg id="Layer_1" data-name="Layer 1" xmlns="http://www.w3.org/2000/svg" viewBox="0 0 517.14 758.16">
  <defs>
    <style>.cls-1{fill:#000000;stroke-width:25}.cls-2{fill:#000000; stroke-width:25}</style>
  </defs>
  <polygon class="cls-1" points="0 0 73 0 73 429.33 36.5 385.33 0 429.33 0 0" />
  <path class="cls-2"
    d="M925.67,249v77.33s368.66-56.66,316,352C1237.54,709,1224.35,772.94,1174,830c-99.17,112.38-252.29,96-268,94l-66.17,74.33A595.52,595.52,0,0,0,967,1004c51.54-3.23,115.06-7.2,183-44,15-8.1,64.88-36.61,109-93,87-111.13,80.35-239.69,78-275-2.77-41.65-9.27-139.56-81-224C1138.22,229.34,946.34,246.79,925.67,249Z"
    transform="translate(-770 -247)" />
</svg>