<?xml version="1.0" standalone="no"?>
<!DOCTYPE svg PUBLIC "-//W3C//DTD SVG 20010904//EN" "http://www.w3.org/TR/2001/REC-SVG-20010904/DTD/svg10.dtd">
<svg version="1.0" xmlns="http://www.w3.org/2000/svg"
  width="1024.000000pt" height="1024.000000pt" viewBox="0 0 1024.000000 1024.000000"
  preserveAspectRatio="xMidYMid meet">

  <g transform="translate(0.000000,1024.000000) scale(0.100000,-0.100000)"
    fill="#991C1C" stroke="none">
    <path
      d="M4999 8423 c-538 -554 -849 -1047 -954 -1513 -63 -278 -32 -445 111
-600 353 -380 1209 -456 1728 -152 120 70 235 187 283 287 35 76 37 85 41 200
3 94 -1 142 -17 222 -68 329 -269 732 -538 1078 -96 124 -343 402 -450 508
l-89 88 -115 -118z" />
    <path
      d="M3175 6028 c-104 -6 -223 -25 -308 -50 -45 -13 -45 -13 9 -178 115
-348 367 -622 608 -662 230 -38 455 119 486 341 34 242 -154 461 -458 532 -73
17 -216 25 -337 17z" />
    <path
      d="M6860 6029 c-288 -17 -507 -154 -581 -364 -31 -87 -23 -220 16 -302
37 -75 119 -157 190 -189 230 -106 477 -10 686 265 85 112 229 434 229 513 0
44 -322 90 -540 77z" />
    <path
      d="M4968 5530 c-289 -52 -514 -227 -637 -492 -60 -129 -75 -201 -75
-358 0 -111 4 -149 22 -215 72 -249 230 -450 443 -560 139 -72 217 -90 394
-89 175 0 232 12 371 79 317 153 507 468 491 814 -17 384 -263 697 -630 802
-81 23 -298 34 -379 19z" />
    <path
      d="M2953 4705 c-196 -53 -454 -281 -680 -601 -200 -282 -369 -632 -513
-1059 -38 -115 -70 -210 -70 -211 0 -2 42 -16 93 -32 426 -136 918 -203 1337
-181 535 28 894 178 1009 423 54 114 63 225 35 414 -71 481 -434 997 -839
1192 -137 67 -261 85 -372 55z" />
    <path
      d="M7033 4701 c-354 -104 -754 -538 -898 -975 -67 -201 -94 -458 -62
-583 54 -208 227 -358 506 -439 220 -64 396 -85 702 -85 317 0 562 27 844 92
140 32 395 106 408 118 9 9 -54 208 -122 388 -174 457 -358 788 -599 1075
-156 185 -355 347 -489 398 -81 31 -207 36 -290 11z" />
    <path
      d="M5050 3343 c-241 -40 -397 -254 -377 -516 4 -45 14 -109 22 -142 24
-92 116 -270 190 -368 67 -88 221 -257 235 -257 10 0 165 179 232 269 163 218
237 470 194 655 -34 144 -123 262 -239 316 -89 42 -176 57 -257 43z" />
  </g>
</svg>