<?xml version="1.0" encoding="UTF-8"?>
<svg id="Layer_1" data-name="Layer 1" xmlns="http://www.w3.org/2000/svg" viewBox="0 0 2000 2000">
  <defs>
    <style>
      .cls-1 {
        fill: #777;
      }

      .cls-2 {
        fill: #1f27c1;
      }
    </style>
  </defs>
  <path class="cls-1" d="m1000,181.56c1.47,0,2.98.01,4.45.03,173.87,2.39,314.61,145.84,313.74,319.77-.36,71.22-25.05,140.57-68.87,196.02-9.3,11.76-8.51,28.56,2.09,39.16l13.12,13.12c10.61,10.61,27.43,11.39,39.19,2.06.07-.06.14-.11.21-.17,22.42-17.77,47.14-32.44,73.42-43.56,39.28-16.65,81.03-25.1,124.02-25.1,85.81,0,166.27,33.65,226.53,94.75,60.26,61.1,92.8,142.04,91.62,227.9-1.16,83.89-34.89,162.71-95,221.95-60.07,59.19-139.32,91.79-223.16,91.79,0,0-1.61,0-1.61,0-71.22-.36-140.57-25.05-196.02-68.87-11.76-9.3-28.56-8.51-39.16,2.09l-13.12,13.12c-10.61,10.61-11.39,27.43-2.06,39.18.06.07.11.14.17.21,17.78,22.43,32.45,47.15,43.56,73.43,16.64,39.26,25.1,81.01,25.1,124,0,175.44-142.74,318.18-318.2,318.18-1.48,0-2.97-.01-4.46-.03-173.87-2.39-314.61-145.84-313.74-319.77.36-71.22,25.05-140.57,68.87-196.01,9.29-11.76,8.51-28.56-2.09-39.16l-13.12-13.12c-10.61-10.61-27.43-11.39-39.19-2.06-.07.06-.14.11-.21.17-22.42,17.78-47.14,32.45-73.42,43.56-39.26,16.64-81.01,25.1-124.01,25.1-85.81,0-166.27-33.65-226.53-94.75-60.26-61.1-92.8-142.03-91.62-227.9,1.15-83.89,34.89-162.72,95-221.95,60.07-59.19,139.32-91.79,223.17-91.79h1.6c71.22.36,140.57,25.05,196.01,68.88,11.76,9.3,28.56,8.51,39.16-2.09l13.12-13.12c10.61-10.61,11.39-27.43,2.06-39.19-.06-.07-.11-.14-.17-.21-17.77-22.42-32.44-47.13-43.55-73.41-16.65-39.28-25.1-81.03-25.1-124.02,0-175.44,142.74-318.18,318.2-318.18m0-43.88c-199.65,0-362.08,162.42-362.08,362.06,0,48.91,9.62,96.39,28.58,141.14,8.49,20.07,18.79,39.34,30.78,57.56-20.24-13.25-41.83-24.47-64.61-33.56-42.42-16.93-86.9-25.62-132.18-25.85-.04,0-.08,0-.12,0h-1.6s-.06,0-.1,0c-95.44,0-185.64,37.08-253.97,104.42-68.38,67.39-106.76,157.1-108.08,252.6-1.35,97.7,35.68,189.79,104.25,259.32,68.58,69.53,160.12,107.82,257.77,107.82,48.92,0,96.4-9.62,141.13-28.58,20.06-8.48,39.34-18.79,57.57-30.78-13.25,20.24-24.47,41.83-33.56,64.61-16.93,42.42-25.62,86.9-25.85,132.18-.99,197.91,159.16,361.14,357.01,363.86,1.68.02,3.38.04,5.06.04,199.65,0,362.07-162.42,362.07-362.06,0-48.91-9.62-96.39-28.58-141.13-8.48-20.07-18.79-39.34-30.78-57.57,20.24,13.25,41.83,24.47,64.6,33.56,42.42,16.93,86.9,25.62,132.19,25.85.04,0,.08,0,.12,0h1.7c95.44,0,185.63-37.08,253.96-104.42,68.38-67.39,106.76-157.1,108.07-252.6,1.35-97.7-35.68-189.79-104.25-259.32-68.57-69.53-160.12-107.82-257.77-107.82-48.9,0-96.39,9.62-141.14,28.58-20.07,8.49-39.34,18.79-57.56,30.78,13.25-20.24,24.47-41.82,33.56-64.6,16.93-42.42,25.63-86.9,25.85-132.19.99-197.91-159.16-361.14-357.01-363.86-1.68-.02-3.39-.04-5.06-.04h0Z"/>
  <path class="cls-2" d="m1501.36,778.28c-30.81,0-60.17,6.26-86.86,17.57-18.54,7.84-35.79,18.14-51.36,30.49-20.65,16.35-38.33,36.28-52.1,58.85-8.84,14.49-28.74,17.12-40.74,5.13l-223.05-223.03h0s-47.25-47.24-47.25-47.24l-51.36-51.38-.02-.02-.06-.04-17.44-17.44-.04-.06-.02-.02c-2.75-3.68-5.19-7.57-7.31-11.66-7-13.39-10.57-28.86-9.54-45.25,2.75-43.67,38.73-78.67,82.46-80.31,48.97-1.84,89.26,37.3,89.26,85.86,0,25.55-11.15,48.5-28.85,64.25-5.36,4.77-5.58,13.07-.51,18.14l79.16,79.16c4.8,4.8,12.55,4.88,17.48.21,42.61-40.36,69.27-97.39,69.59-160.62.61-121.68-97.99-222.23-219.67-223.91-124.49-1.71-225.95,98.67-225.95,222.77,0,30.81,6.26,60.17,17.57,86.86,7.84,18.54,18.14,35.79,30.49,51.36,16.35,20.65,36.28,38.33,58.85,52.1,14.49,8.84,17.12,28.74,5.13,40.74l-223.03,223.05h0s-47.24,47.26-47.24,47.26l-51.38,51.36-.02.02-.04.06-17.44,17.44-.06.04-.02.02c-3.68,2.75-7.57,5.19-11.66,7.31-13.39,7-28.86,10.57-45.25,9.54-43.67-2.75-78.67-38.73-80.31-82.46-1.84-48.97,37.3-89.26,85.86-89.26,25.55,0,48.5,11.15,64.25,28.85,4.77,5.36,13.07,5.58,18.14.51l79.16-79.16c4.8-4.8,4.88-12.55.21-17.48-40.36-42.61-97.39-69.27-160.62-69.59-121.68-.61-222.23,97.99-223.91,219.67-1.71,124.49,98.67,225.95,222.77,225.95,30.81,0,60.17-6.26,86.86-17.57,18.54-7.84,35.79-18.14,51.36-30.49,20.65-16.35,38.33-36.28,52.1-58.85,8.84-14.49,28.74-17.12,40.74-5.13l223.05,223.03h0s47.25,47.24,47.25,47.24l51.36,51.38.02.02.06.04,17.44,17.44.04.06.02.02c2.75,3.68,5.19,7.57,7.31,11.66,7,13.39,10.57,28.86,9.54,45.25-2.75,43.67-38.73,78.67-82.46,80.31-48.97,1.84-89.26-37.3-89.26-85.86,0-25.55,11.15-48.5,28.85-64.25,5.36-4.77,5.58-13.07.51-18.14l-79.16-79.16c-4.8-4.8-12.55-4.88-17.48-.21-42.61,40.36-69.27,97.39-69.59,160.62-.61,121.68,97.99,222.23,219.67,223.91,124.49,1.71,225.95-98.67,225.95-222.77,0-30.81-6.26-60.17-17.57-86.86-7.84-18.54-18.14-35.79-30.49-51.36-16.35-20.65-36.28-38.33-58.85-52.1-14.49-8.84-17.12-28.74-5.13-40.74l223.03-223.05h0s47.24-47.26,47.24-47.26l51.38-51.36.02-.02.04-.06,17.44-17.44.06-.04.02-.02c3.68-2.75,7.57-5.19,11.66-7.31,13.39-7,28.86-10.57,45.25-9.54,43.67,2.75,78.67,38.73,80.31,82.46,1.84,48.97-37.3,89.26-85.86,89.26-25.55,0-48.5-11.15-64.25-28.85-4.77-5.36-13.07-5.58-18.14-.51l-79.16,79.16c-4.8,4.8-4.88,12.55-.21,17.48,40.36,42.61,97.39,69.27,160.62,69.59,121.68.61,222.23-97.99,223.91-219.67,1.71-124.49-98.67-225.95-222.77-225.95Zm-319.05,222.82l-182.31,182.31-182.31-182.31,182.31-182.31,182.31,182.31Z"/>
</svg>